HIERARCHY
ROOT hip
{
  OFFSET 0 0 0
  CHANNELS 6 Xposition Yposition Zposition Zrotation Yrotation Xrotation
  JOINT abdomen
  {
    OFFSET 0 20.6881 -0.73152
    CHANNELS 3 Zrotation Xrotation Yrotation
    JOINT chest
    {
      OFFSET 0 11.7043 -0.48768
      CHANNELS 3 Zrotation Xrotation Yrotation
      JOINT neck
      {
        OFFSET 0 22.1894 -2.19456
        CHANNELS 3 Zrotation Xrotation Yrotation
        JOINT head
        {
          OFFSET -0.24384 7.07133 1.2192
          CHANNELS 3 Zrotation Xrotation Yrotation
          JOINT leftEye
          {
            OFFSET 4.14528 8.04674 8.04672
            CHANNELS 3 Zrotation Xrotation Yrotation
            End Site
            {
              OFFSET 1 0 0
            }
          }
          JOINT rightEye
          {
            OFFSET -3.6576 8.04674 8.04672
            CHANNELS 3 Zrotation Xrotation Yrotation
            End Site
            {
              OFFSET 1 0 0
            }
          }
        }
      }
      JOINT rCollar
      {
        OFFSET -2.68224 19.2634 -4.8768
        CHANNELS 3 Zrotation Xrotation Yrotation
        JOINT rShldr
        {
          OFFSET -8.77824 -1.95073 1.46304
          CHANNELS 3 Zrotation Xrotation Yrotation
          JOINT rForeArm
          {
            OFFSET -28.1742 -1.7115 0.48768
            CHANNELS 3 Zrotation Xrotation Yrotation
            JOINT rHand
            {
              OFFSET -22.5879 0.773209 7.07136
              CHANNELS 3 Zrotation Xrotation Yrotation
              JOINT rThumb1
              {
                OFFSET -1.2192 -0.487915 3.41376
                CHANNELS 3 Zrotation Xrotation Yrotation
                JOINT rThumb2
                {
                  OFFSET -3.37035 -0.52449 3.41376
                  CHANNELS 3 Zrotation Xrotation Yrotation
                  End Site
                  {
                    OFFSET -1.78271 -1.18214 1.43049
                  }
                }
              }
              JOINT rIndex1
              {
                OFFSET -7.75947 0.938293 5.60832
                CHANNELS 3 Zrotation Xrotation Yrotation
                JOINT rIndex2
                {
                  OFFSET -2.54057 -0.884171 1.56538
                  CHANNELS 3 Zrotation Xrotation Yrotation
                  End Site
                  {
                    OFFSET -1.62519 -0.234802 1.16502
                  }
                }
              }
              JOINT rMid1
              {
                OFFSET -8.24714 1.18213 3.41376
                CHANNELS 3 Zrotation Xrotation Yrotation
                JOINT rMid2
                {
                  OFFSET -3.10165 -0.590103 1.0647
                  CHANNELS 3 Zrotation Xrotation Yrotation
                  End Site
                  {
                    OFFSET -2.48547 -0.328903 0.83742
                  }
                }
              }
              JOINT rRing1
              {
                OFFSET -8.82822 0.546677 1.51678
                CHANNELS 3 Zrotation Xrotation Yrotation
                JOINT rRing2
                {
                  OFFSET -2.60934 -0.819778 -0.0198488
                  CHANNELS 3 Zrotation Xrotation Yrotation
                  End Site
                  {
                    OFFSET -2.33842 -0.294052 0.168128
                  }
                }
              }
              JOINT rPinky1
              {
                OFFSET -8.27202 -0.0477905 -0.4584
                CHANNELS 3 Zrotation Xrotation Yrotation
                JOINT rPinky2
                {
                  OFFSET -1.82734 -0.647385 -0.700984
                  CHANNELS 3 Zrotation Xrotation Yrotation
                  End Site
                  {
                    OFFSET -1.69225 -0.51767 -0.607171
                  }
                }
              }
            }
          }
        }
      }
      JOINT lCollar
      {
        OFFSET 2.68224 19.2634 -4.8768
        CHANNELS 3 Zrotation Xrotation Yrotation
        JOINT lShldr
        {
          OFFSET 8.77824 -1.95073 1.46304
          CHANNELS 3 Zrotation Xrotation Yrotation
          JOINT lForeArm
          {
            OFFSET 28.1742 -1.7115 0.48768
            CHANNELS 3 Zrotation Xrotation Yrotation
            JOINT lHand
            {
              OFFSET 22.5879 0.773209 7.07136
              CHANNELS 3 Zrotation Xrotation Yrotation
              JOINT lThumb1
              {
                OFFSET 1.2192 -0.487915 3.41376
                CHANNELS 3 Zrotation Xrotation Yrotation
                JOINT lThumb2
                {
                  OFFSET 3.37035 -0.52449 3.41376
                  CHANNELS 3 Zrotation Xrotation Yrotation
                  End Site
                  {
                    OFFSET 1.78271 -1.18214 1.43049
                  }
                }
              }
              JOINT lIndex1
              {
                OFFSET 7.75947 0.938293 5.60832
                CHANNELS 3 Zrotation Xrotation Yrotation
                JOINT lIndex2
                {
                  OFFSET 2.54057 -0.884171 1.56538
                  CHANNELS 3 Zrotation Xrotation Yrotation
                  End Site
                  {
                    OFFSET 1.62519 -0.234802 1.16502
                  }
                }
              }
              JOINT lMid1
              {
                OFFSET 8.24714 1.18213 3.41376
                CHANNELS 3 Zrotation Xrotation Yrotation
                JOINT lMid2
                {
                  OFFSET 3.10165 -0.590103 1.0647
                  CHANNELS 3 Zrotation Xrotation Yrotation
                  End Site
                  {
                    OFFSET 2.48547 -0.328903 0.83742
                  }
                }
              }
              JOINT lRing1
              {
                OFFSET 8.82822 0.546677 1.51678
                CHANNELS 3 Zrotation Xrotation Yrotation
                JOINT lRing2
                {
                  OFFSET 2.60934 -0.819778 -0.0198488
                  CHANNELS 3 Zrotation Xrotation Yrotation
                  End Site
                  {
                    OFFSET 2.33842 -0.294052 0.168128
                  }
                }
              }
              JOINT lPinky1
              {
                OFFSET 8.27202 -0.0477905 -0.4584
                CHANNELS 3 Zrotation Xrotation Yrotation
                JOINT lPinky2
                {
                  OFFSET 1.82734 -0.647385 -0.700984
                  CHANNELS 3 Zrotation Xrotation Yrotation
                  End Site
                  {
                    OFFSET 1.69225 -0.51767 -0.607171
                  }
                }
              }
            }
          }
        }
      }
    }
  }
  JOINT rButtock
  {
    OFFSET -8.77824 4.35084 1.2192
    CHANNELS 3 Zrotation Xrotation Yrotation
    JOINT rThigh
    {
      OFFSET 0 -1.70687 -2.19456
      CHANNELS 3 Zrotation Xrotation Yrotation
      JOINT rShin
      {
        OFFSET 0 -36.8199 0.73152
        CHANNELS 3 Zrotation Xrotation Yrotation
        JOINT rFoot
        {
          OFFSET 0.73152 -45.1104 -5.12064
          CHANNELS 3 Zrotation Xrotation Yrotation
          End Site
          {
            OFFSET -1.1221 -3.69964 12.103
          }
        }
      }
    }
  }
  JOINT lButtock
  {
    OFFSET 8.77824 4.35084 1.2192
    CHANNELS 3 Zrotation Xrotation Yrotation
    JOINT lThigh
    {
      OFFSET 0 -1.70687 -2.19456
      CHANNELS 3 Zrotation Xrotation Yrotation
      JOINT lShin
      {
        OFFSET 0 -36.8199 0.73152
        CHANNELS 3 Zrotation Xrotation Yrotation
        JOINT lFoot
        {
          OFFSET -0.73152 -45.1104 -5.12064
          CHANNELS 3 Zrotation Xrotation Yrotation
          End Site
          {
            OFFSET 1.1221 -3.69964 12.103
          }
        }
      }
    }
  }
}
MOTION
Frames: 4
Frame Time:	0.06666666
5.84684 85.8883 20.9569 21.7213 -43.6516 -8.2366 -7.12539 10.7887 -2.34429 4.40712 -5.96266 -0.387644 -12.5919 -2.67281 -4.88457 10.5572 -6.55509 -5.02413 -0.0 0.0 0.0 -0.0 0.0 0.0 2.45534e-13 5.55255e-13 -1.73594e-12 98.4691 36.322 -28.2887 -27.4464 -42.6781 88.881 -0.219181 -13.2157 -1.89136 5.83036e-09 8.07569e-09 4.31209e-09 1.00507e-08 1.40484e-08 7.50116e-09 5.83037e-09 8.07569e-09 4.31208e-09 7.73091 5.47488 0.417314 5.83036e-09 8.07568e-09 4.3121e-09 2.90554 0.965183 0.102902 5.83037e-09 8.07569e-09 4.31209e-09 10.2786 0.731801 0.0259123 5.83036e-09 8.07569e-09 4.3121e-09 2.22167 -0.733487 -0.20892 2.45523e-13 5.55259e-13 -1.73608e-12 -88.7523 34.1367 14.6178 27.2045 -43.4305 -90.3377 1.1231 -28.7077 4.41086 6.63856e-09 -3.5122e-09 3.7905e-10 1.14735e-08 -5.73453e-09 8.002e-10 6.63856e-09 -3.51219e-09 3.79066e-10 -7.73091 5.47488 -0.417314 6.63856e-09 -3.5122e-09 3.79055e-10 -2.90554 0.965183 -0.102902 6.63856e-09 -3.5122e-09 3.79058e-10 -10.2786 0.731801 -0.0259123 6.63857e-09 -3.5122e-09 3.79057e-10 -2.22167 -0.733487 0.20892 -2.03217e-16 0.0 -3.88251e-19 0.447883 -40.5079 -7.13007 -0.27432 30.0538 -0.682392 -0.133094 6.00004 -2.95862 2.03217e-16 0.0 3.88251e-19 -7.56905 -0.234332 -6.39476 0.504231 46.9015 -0.994821 6.66322 34.8222 -14.4622
2.95756 84.54 25.0033 21.6002 -44.9546 -9.3664 -5.95123 11.8177 -1.77266 4.32402 -6.01289 -0.171119 -12.5715 -2.62244 -4.78462 9.98623 -6.15545 -4.9159 -0.0 0.0 0.0 -0.0 0.0 0.0 -1.84902e-14 1.21095e-13 -2.20407e-12 97.1248 36.5248 -26.4666 -27.5116 -42.4663 88.4672 -0.220353 -13.2521 -1.89674 6.85383e-09 1.14128e-08 6.58832e-09 1.17962e-08 1.98611e-08 1.14506e-08 6.85384e-09 1.14128e-08 6.58831e-09 7.73091 5.47488 0.417314 6.85383e-09 1.14128e-08 6.58833e-09 2.90554 0.965183 0.102902 6.85384e-09 1.14128e-08 6.58832e-09 10.2786 0.731801 0.0259123 6.85383e-09 1.14128e-08 6.58833e-09 2.22167 -0.733487 -0.20892 -1.85346e-14 1.21074e-13 -2.20412e-12 -89.8658 34.4918 16.0524 27.3685 -42.9414 -89.3755 1.31184 -30.6706 4.78112 7.24379e-09 -2.59137e-09 4.50303e-11 1.25223e-08 -4.08373e-09 2.50067e-10 7.24379e-09 -2.59137e-09 4.50335e-11 -7.73091 5.47488 -0.417314 7.24379e-09 -2.59137e-09 4.50335e-11 -2.90554 0.965183 -0.102902 7.24378e-09 -2.59137e-09 4.50351e-11 -10.2786 0.731801 -0.0259123 7.24379e-09 -2.59137e-09 4.50303e-11 -2.22167 -0.733487 0.20892 -2.03217e-16 0.0 -3.88251e-19 1.41176 -39.0242 -8.80886 -0.35703 34.6706 -0.620593 -0.30367 2.90609 -2.98151 2.03217e-16 0.0 3.88251e-19 -6.11981 -2.61751 -4.38184 0.737439 53.5334 -1.19176 5.49236 34.3192 -12.356
-0.0737178 83.302 28.8187 20.7783 -45.8697 -9.7965 -4.35051 13.0259 -1.6883 4.2846 -6.49257 -0.0684323 -12.3441 -2.74062 -4.71935 9.12918 -5.43703 -4.94468 -0.0 0.0 0.0 -0.0 0.0 0.0 -3.63667e-13 -8.26827e-13 -6.36008e-13 95.6077 36.6641 -24.1445 -27.6539 -41.971 87.5113 -0.233526 -13.6368 -1.95391 1.60377e-09 2.26532e-10 9.40368e-10 2.76519e-09 4.28471e-10 1.643e-09 1.60377e-09 2.26533e-10 9.40358e-10 7.73091 5.47488 0.417314 1.60377e-09 2.26518e-10 9.40367e-10 2.90554 0.965183 0.102902 1.60378e-09 2.26529e-10 9.40362e-10 10.2786 0.731801 0.0259123 1.60376e-09 2.26529e-10 9.40366e-10 2.22167 -0.733487 -0.20892 -3.63788e-13 -8.26835e-13 -6.36148e-13 -90.5822 32.9936 17.4975 27.5657 -42.2879 -88.1164 1.13135 -28.7924 4.42676 2.5964e-09 4.8015e-09 1.78931e-09 4.4465e-09 8.46389e-09 3.16439e-09 2.5964e-09 4.80149e-09 1.78931e-09 -7.73091 5.47488 -0.417314 2.5964e-09 4.8015e-09 1.78932e-09 -2.90554 0.965183 -0.102902 2.5964e-09 4.8015e-09 1.78932e-09 -10.2786 0.731801 -0.0259123 2.59641e-09 4.8015e-09 1.78931e-09 -2.22167 -0.733487 0.20892 -2.03217e-16 0.0 -3.88251e-19 3.90484 -37.4024 -6.89216 -0.441799 39.1749 -0.466693 -0.959526 -2.60202 -5.876 2.03217e-16 0.0 3.88251e-19 -3.72293 -5.77292 -2.92846 1.10995 60.3964 -1.5298 4.30982 31.7082 -10.8652
-3.11942 82.0832 32.2903 18.4303 -45.894 -9.0296 -2.31682 14.0299 -1.8239 4.22566 -7.01063 -0.01819 -12.1513 -2.89114 -4.7041 8.42112 -4.81788 -5.03715 -0.0 0.0 0.0 -0.0 0.0 0.0 -6.07236e-13 -1.56454e-12 9.63857e-13 93.8806 36.9572 -21.4409 -27.7859 -41.4199 86.506 -0.243593 -13.9168 -1.99568 -3.60081e-09 -1.08722e-08 -4.87817e-09 -6.18479e-09 -1.88573e-08 -8.46034e-09 -3.60082e-09 -1.08722e-08 -4.87818e-09 7.73091 5.47488 0.417314 -3.60081e-09 -1.08722e-08 -4.87818e-09 2.90554 0.965183 0.102902 -3.6008e-09 -1.08722e-08 -4.87819e-09 10.2786 0.731801 0.0259123 -3.60082e-09 -1.08722e-08 -4.87819e-09 2.22167 -0.733487 -0.20892 -6.07428e-13 -1.56453e-12 9.63609e-13 -91.2198 31.1984 18.8437 27.7425 -41.6006 -86.8409 0.949517 -26.5384 4.02483 -2.01818e-09 1.12304e-08 3.38673e-09 -3.56787e-09 1.93366e-08 5.82078e-09 -2.01818e-09 1.12303e-08 3.38673e-09 -7.73091 5.47488 -0.417314 -2.01818e-09 1.12304e-08 3.38674e-09 -2.90554 0.965183 -0.102902 -2.01819e-09 1.12304e-08 3.38674e-09 -10.2786 0.731801 -0.0259123 -2.01818e-09 1.12304e-08 3.38674e-09 -2.22167 -0.733487 0.20892 -2.03217e-16 0.0 -3.88251e-19 6.68065 -35.4935 -4.44529 -0.531687 43.1131 -0.255499 -2.39966 -8.37651 -9.56895 2.03217e-16 0.0 3.88251e-19 -0.641251 -9.80139 -1.67735 1.69184 67.0542 -2.08091 3.3199 28.4337 -9.82118
